<?xml version="1.0" encoding="utf-8"?>
<!-- Generator: Adobe Illustrator 21.1.0, SVG Export Plug-In . SVG Version: 6.00 Build 0)  -->
<!DOCTYPE svg PUBLIC "-//W3C//DTD SVG 1.1//EN" "http://www.w3.org/Graphics/SVG/1.1/DTD/svg11.dtd">
<svg version="1.1" id="Layer_1" xmlns="http://www.w3.org/2000/svg" xmlns:xlink="http://www.w3.org/1999/xlink" x="0px" y="0px"
	 viewBox="0 0 884.9 176.2" style="enable-background:new 0 0 884.9 176.2;" xml:space="preserve">
<style type="text/css">
	.st0{fill:#58595B;}
	.st1{fill:#F47721;}
	.st2{fill:#00719C;}
</style>
<g id="Plain">
</g>
<g id="Swoopiness">
</g>
<g id="Detailed">
	<path class="st0" d="M28.7,87.3c0,0-42.7-56.9-24-80.2S132,25.8,132,25.8S31.4,18.1,28.7,87.3z"/>
	<path class="st1" d="M91.6,32.6c0,0,70.5-8.9,81.6,18.9S93.8,152.9,93.8,152.9S150.3,69.2,91.6,32.6z"/>
	<path class="st2" d="M107.5,114.9c0,0-27.7,65.5-57.3,61.1C20.7,171.6,2.3,56.6,2.3,56.6S46.4,147.4,107.5,114.9z"/>
	<g>
		<path class="st0" d="M240.7,117.2V93.4h-19.3v23.8h-11.1v-57h11.1v23.3h19.3V60.3h11.1v57h-11.1V117.2z"/>
		<path class="st0" d="M297.5,117.2l-3.4-10.1h-20.2l-3.4,10.1h-11.6l20.7-57h8.7l20.8,57H297.5z M284.2,77.1L277,97.8h14.2
			L284.2,77.1z"/>
		<path class="st0" d="M346.4,117.2l-11.1-22.7h-8v22.7h-11.1v-57h22.3c11.6,0,18.5,7.9,18.5,17.4c0,8-4.9,13-10.4,15l12.7,24.6
			H346.4z M337.8,70.2h-10.5v15h10.5c4.9,0,8.1-3.1,8.1-7.5C345.8,73.3,342.6,70.2,337.8,70.2z"/>
		<path class="st0" d="M409,117.2V84l-10.9,21.6h-7.5l-11-21.6v33.2h-11.1v-57h11L394.4,91l14.8-30.8h11v57H409z"/>
		<path class="st0" d="M467.8,111.5c-4,4-8.9,6.2-15.4,6.2s-11.4-2.2-15.4-6.2c-5.8-5.8-5.6-12.9-5.6-22.7s-0.2-17,5.6-22.7
			c4-4,9-6.2,15.4-6.2s11.4,2.2,15.4,6.2c5.8,5.8,5.7,12.9,5.7,22.7S473.6,105.7,467.8,111.5z M459.6,72.7c-1.6-1.8-4.1-3-7.1-3
			s-5.6,1.2-7.2,3c-2.2,2.4-2.7,5-2.7,16s0.6,13.6,2.7,16c1.6,1.8,4.2,3,7.2,3s5.5-1.2,7.1-3c2.2-2.4,2.8-5,2.8-16
			C462.4,77.8,461.8,75.1,459.6,72.7z"/>
		<path class="st0" d="M518.6,117.2l-22.6-35v35h-11.1v-57h9.9l22.6,34.9V60.3h11.1v57h-9.9V117.2z"/>
		<path class="st0" d="M544.4,117.2V37.5H560v79.7H544.4z"/>
		<path class="st0" d="M628.5,120.6l-7.1-7.1c-4.5,2.9-9.9,4.4-16.1,4.4c-9.1,0-16-3.1-21.6-8.7c-8.1-8.1-7.8-18-7.8-31.8
			s-0.2-23.7,7.8-31.8c5.6-5.6,12.5-8.7,21.6-8.7s15.9,3.1,21.5,8.7c8.1,8.1,8,18,8,31.8c0,12,0.1,20.8-4.9,28.2l6.8,6.8
			L628.5,120.6z M615.3,55c-2.2-2.6-5.7-4.3-10-4.3s-7.8,1.7-10.1,4.3c-3,3.4-3.8,7.1-3.8,22.4s0.8,19,3.8,22.4
			c2.2,2.6,5.8,4.3,10.1,4.3c1.9,0,3.7-0.4,5.2-1.5l-6.9-6.8l8.3-8.2l5.9,5.9c1.2-3.5,1.5-8.1,1.5-16.1
			C619.2,62,618.3,58.3,615.3,55z"/>
	</g>
	<g>
		<path class="st0" d="M682.2,134.4c-2.8,0-5.1-1-6.9-2.8c-2.6-2.6-2.5-5.8-2.5-10.2c0-4.4-0.1-7.6,2.5-10.2
			c1.8-1.8,4.1-2.8,6.9-2.8c4.8,0,8.5,2.7,9.4,8.1h-5.1c-0.5-2.1-1.8-3.6-4.3-3.6c-1.4,0-2.5,0.5-3.2,1.3c-1,1.1-1.3,2.3-1.3,7.2
			c0,4.9,0.3,6.2,1.3,7.2c0.7,0.8,1.8,1.3,3.2,1.3c2.5,0,3.8-1.6,4.3-3.6h5.1C690.7,131.7,686.9,134.4,682.2,134.4z"/>
		<path class="st0" d="M708.5,132.1c-1.2,1.2-3.1,2.3-5.8,2.3s-4.6-1.1-5.8-2.3c-1.7-1.8-2.1-3.9-2.1-7.3c0-3.4,0.4-5.5,2.1-7.3
			c1.2-1.2,3-2.3,5.8-2.3s4.7,1.1,5.8,2.3c1.7,1.8,2.1,3.9,2.1,7.3C710.7,128.2,710.2,130.3,708.5,132.1z M704.9,120.3
			c-0.5-0.5-1.3-0.8-2.2-0.8s-1.6,0.3-2.2,0.8c-1,1-1.1,2.6-1.1,4.5s0.1,3.6,1.1,4.6c0.5,0.5,1.2,0.8,2.2,0.8s1.7-0.3,2.2-0.8
			c1-1,1.1-2.6,1.1-4.6S705.9,121.2,704.9,120.3z"/>
		<path class="st0" d="M725.3,120.5c-0.7-0.7-1.3-1.1-2.5-1.1c-1.4,0-3,1.1-3,3.5v11.3h-4.7v-18.8h4.6v1.8c0.9-1.1,2.7-2,4.7-2
			c1.8,0,3.1,0.5,4.4,1.8L725.3,120.5z"/>
		<path class="st0" d="M745.3,132.7c-1,1-2.7,1.7-4.6,1.7c-1.9,0-3.3-0.5-4.5-1.9v8.5h-4.7v-25.6h4.5v1.8c1.3-1.4,2.7-2,4.7-2
			c1.8,0,3.5,0.6,4.6,1.7c1.9,1.9,1.9,5.1,1.9,7.9S747.2,130.8,745.3,132.7z M739.4,119.4c-2.8,0-3.2,2.3-3.2,5.4s0.4,5.4,3.2,5.4
			s3.2-2.3,3.2-5.4S742.2,119.4,739.4,119.4z"/>
		<path class="st0" d="M764.6,132.1c-1.2,1.2-3.1,2.3-5.8,2.3s-4.6-1.1-5.8-2.3c-1.7-1.8-2.1-3.9-2.1-7.3c0-3.4,0.4-5.5,2.1-7.3
			c1.2-1.2,3-2.3,5.8-2.3s4.7,1.1,5.8,2.3c1.7,1.8,2.1,3.9,2.1,7.3C766.7,128.2,766.3,130.3,764.6,132.1z M761,120.3
			c-0.5-0.5-1.3-0.8-2.2-0.8s-1.6,0.3-2.2,0.8c-1,1-1.1,2.6-1.1,4.5s0.1,3.6,1.1,4.6c0.5,0.5,1.2,0.8,2.2,0.8s1.7-0.3,2.2-0.8
			c1-1,1.1-2.6,1.1-4.6S762,121.2,761,120.3z"/>
		<path class="st0" d="M781.4,120.5c-0.7-0.7-1.3-1.1-2.5-1.1c-1.4,0-3,1.1-3,3.5v11.3h-4.7v-18.8h4.6v1.8c0.9-1.1,2.7-2,4.7-2
			c1.8,0,3.1,0.5,4.4,1.8L781.4,120.5z"/>
		<path class="st0" d="M796.8,134.2v-1.6c-1.3,1.3-2.4,1.8-4.6,1.8c-2.1,0-3.7-0.5-4.8-1.7c-1-1-1.5-2.6-1.5-4.2
			c0-3,2.1-5.4,6.4-5.4h4.4v-0.9c0-2.1-1-3-3.5-3c-1.8,0-2.6,0.4-3.6,1.5l-3-2.9c1.8-2,3.6-2.6,6.8-2.6c5.3,0,8,2.2,8,6.6v12.3h-4.6
			V134.2z M796.7,126.3H793c-1.7,0-2.6,0.8-2.6,2.1s0.9,2.2,2.7,2.2c1.3,0,2.1-0.1,3-0.9c0.5-0.5,0.7-1.2,0.7-2.4v-1H796.7z"/>
		<path class="st0" d="M812.3,134.2c-3.8,0-5.4-2.7-5.4-5.4v-9.3h-2V116h2v-5.5h4.7v5.5h3.3v3.6h-3.3v9c0,1.1,0.5,1.7,1.6,1.7h1.7v4
			h-2.6V134.2z"/>
		<path class="st0" d="M819.1,112.2v-3.8h4.8v3.8H819.1z M819.1,134.2v-18.8h4.7v18.8H819.1z"/>
		<path class="st0" d="M842,132.1c-1.2,1.2-3.1,2.3-5.8,2.3c-2.8,0-4.6-1.1-5.8-2.3c-1.7-1.8-2.1-3.9-2.1-7.3c0-3.4,0.4-5.5,2.1-7.3
			c1.2-1.2,3-2.3,5.8-2.3s4.7,1.1,5.8,2.3c1.7,1.8,2.1,3.9,2.1,7.3C844.1,128.2,843.7,130.3,842,132.1z M838.3,120.3
			c-0.5-0.5-1.3-0.8-2.2-0.8s-1.6,0.3-2.2,0.8c-1,1-1.1,2.6-1.1,4.5s0.1,3.6,1.1,4.6c0.5,0.5,1.2,0.8,2.2,0.8c0.9,0,1.7-0.3,2.2-0.8
			c1-1,1.1-2.6,1.1-4.6S839.3,121.2,838.3,120.3z"/>
		<path class="st0" d="M859.5,134.2v-11.3c0-2.6-1.6-3.4-3.1-3.4s-3.1,0.9-3.1,3.4v11.3h-4.7v-18.8h4.6v1.7c1.2-1.3,3-1.9,4.7-1.9
			c1.9,0,3.4,0.6,4.4,1.7c1.5,1.5,1.9,3.3,1.9,5.3v12L859.5,134.2L859.5,134.2z"/>
	</g>
	<g>
		<path class="st0" d="M681.7,101.3c-3.9,0-6.8-0.8-9.4-3.4l3.2-3.2c1.6,1.6,3.8,2.2,6.2,2.2c3,0,4.5-1.1,4.5-3.2
			c0-0.9-0.3-1.7-0.8-2.2s-1.1-0.7-2.3-0.9l-3.1-0.4c-2.2-0.3-3.8-1-5-2.1c-1.2-1.2-1.8-2.9-1.8-5c0-4.6,3.4-7.8,8.9-7.8
			c3.5,0,6.1,0.9,8.3,3l-3.2,3.1c-1.6-1.5-3.6-1.8-5.3-1.8c-2.7,0-4,1.5-4,3.2c0,0.6,0.2,1.3,0.8,1.8c0.5,0.5,1.3,0.9,2.4,1l3,0.4
			c2.3,0.3,3.8,1,4.9,2c1.4,1.3,2,3.2,2,5.4C691.2,98.5,687,101.3,681.7,101.3z"/>
		<path class="st0" d="M702.5,104.1c-0.4,1-0.8,1.8-1.4,2.4c-1.1,1.1-2.5,1.4-4,1.4h-1.8v-4.2h1.1c1.3,0,1.9-0.3,2.3-1.7l0.8-2.3
			L693,82.3h4.9l3.9,11.6l3.7-11.6h4.9L702.5,104.1z"/>
		<path class="st0" d="M719.5,101.3c-3,0-5.6-0.3-8-2.7l3.1-3.1c1.5,1.5,3.6,1.8,5,1.8c1.6,0,3.3-0.5,3.3-1.9c0-0.9-0.5-1.6-2-1.7
			l-3-0.3c-3.4-0.3-5.5-1.8-5.5-5.3c0-3.9,3.4-6,7.2-6c2.9,0,5.4,0.5,7.2,2.2l-2.9,2.9c-1.1-1-2.7-1.3-4.4-1.3
			c-1.9,0-2.7,0.9-2.7,1.8c0,0.7,0.3,1.5,1.9,1.6l3,0.3c3.7,0.4,5.6,2.3,5.6,5.5C727.4,99.3,723.9,101.3,719.5,101.3z"/>
		<path class="st0" d="M736.9,101.1c-3.8,0-5.4-2.7-5.4-5.4v-9.3h-2v-3.6h2v-5.5h4.7v5.5h3.3v3.6h-3.3v9c0,1.1,0.5,1.7,1.6,1.7h1.7
			v4C739.5,101.1,736.9,101.1,736.9,101.1z"/>
		<path class="st0" d="M747.2,93.2c0,2.4,1.5,4.2,4.1,4.2c2.1,0,3.1-0.6,4.2-1.8l2.8,2.8c-1.9,1.9-3.7,3-7.1,3c-4.4,0-8.7-2-8.7-9.6
			c0-6.1,3.3-9.6,8.2-9.6c5.2,0,8.2,3.8,8.2,9v2.1L747.2,93.2L747.2,93.2z M753.9,87.9c-0.5-1.1-1.5-1.9-3.1-1.9s-2.6,0.8-3.1,1.9
			c-0.3,0.7-0.4,1.2-0.4,2h7.1C754.3,89.1,754.2,88.6,753.9,87.9z"/>
		<path class="st0" d="M785.1,101.1V89.7c0-2.6-1.6-3.4-3.1-3.4c-1.4,0-3.1,0.9-3.1,3.3V101h-4.7V89.7c0-2.6-1.6-3.4-3.1-3.4
			s-3.1,0.9-3.1,3.4V101h-4.7V82.3h4.6V84c1.2-1.3,3-1.9,4.7-1.9c2.1,0,3.8,0.8,5,2.4c1.6-1.7,3.3-2.4,5.6-2.4
			c1.9,0,3.6,0.6,4.6,1.7c1.5,1.5,2.1,3.3,2.1,5.3v12H785.1z"/>
		<path class="st0" d="M801,101.3c-3,0-5.6-0.3-8-2.7l3.1-3.1c1.5,1.5,3.6,1.8,5,1.8c1.6,0,3.3-0.5,3.3-1.9c0-0.9-0.5-1.6-2-1.7
			l-3-0.3c-3.4-0.3-5.5-1.8-5.5-5.3c0-3.9,3.4-6,7.2-6c2.9,0,5.4,0.5,7.2,2.2l-2.9,2.9c-1.1-1-2.7-1.3-4.4-1.3
			c-1.9,0-2.7,0.9-2.7,1.8c0,0.7,0.3,1.5,1.9,1.6l3,0.3c3.7,0.4,5.6,2.3,5.6,5.5C808.9,99.3,805.4,101.3,801,101.3z"/>
	</g>
	<g>
		<path class="st0" d="M687.3,68.4V57.7h-8.7v10.7h-5V42.8h5v10.5h8.7V42.8h5v25.6H687.3z"/>
		<path class="st0" d="M701.6,60.5c0,2.4,1.5,4.2,4.1,4.2c2.1,0,3.1-0.6,4.2-1.8l2.8,2.8c-1.9,1.9-3.7,3-7.1,3c-4.4,0-8.7-2-8.7-9.6
			c0-6.1,3.3-9.6,8.2-9.6c5.2,0,8.2,3.8,8.2,9v2.1L701.6,60.5L701.6,60.5z M708.3,55.3c-0.5-1.1-1.5-1.9-3.1-1.9s-2.6,0.8-3.1,1.9
			c-0.3,0.7-0.4,1.2-0.4,2h7.1C708.7,56.5,708.6,56,708.3,55.3z"/>
		<path class="st0" d="M727.3,68.4v-1.6c-1.3,1.3-2.4,1.8-4.6,1.8c-2.1,0-3.7-0.5-4.8-1.7c-1-1-1.5-2.6-1.5-4.2c0-3,2.1-5.4,6.4-5.4
			h4.4v-0.9c0-2.1-1-3-3.5-3c-1.8,0-2.6,0.4-3.6,1.5l-3-2.9c1.8-2,3.6-2.6,6.8-2.6c5.3,0,8,2.2,8,6.6v12.3L727.3,68.4L727.3,68.4z
			 M727.1,60.5h-3.7c-1.7,0-2.6,0.8-2.6,2.1s0.9,2.2,2.7,2.2c1.3,0,2.1-0.1,3-0.9c0.5-0.5,0.7-1.2,0.7-2.4v-1H727.1z"/>
		<path class="st0" d="M742.2,68.4c-3.9,0-5.5-2.7-5.5-5.4V42.8h4.7v20c0,1.1,0.5,1.7,1.7,1.7h1.8v4L742.2,68.4L742.2,68.4z"/>
		<path class="st0" d="M754.4,68.4c-3.8,0-5.4-2.7-5.4-5.4v-9.3h-2v-3.6h2v-5.5h4.7v5.5h3.3v3.6h-3.3v9c0,1.1,0.5,1.7,1.6,1.7h1.7v4
			H754.4z"/>
		<path class="st0" d="M772,68.4V57c0-2.5-1.6-3.3-3.1-3.3s-3,0.9-3,3.3v11.4h-4.7V42.8h4.7v8.6c1.3-1.3,2.8-1.9,4.5-1.9
			c4.1,0,6.3,2.9,6.3,6.8v12.1H772z"/>
	</g>
	<rect id="Divider" x="652" y="30.7" class="st0" width="5.7" height="115.7"/>
</g>
</svg>
